<svg width="223" height="52" viewBox="0 0 223 52" fill="none" xmlns="http://www.w3.org/2000/svg">
<g clip-path="url(#clip0_391:4304)">
<path d="M30.576 29.3617L30.5593 29.3451L30.5704 29.3728L30.576 29.3617Z" fill="#EAEAEA"/>
<path d="M30.5716 29.3721L30.549 29.4061L30.5773 29.3948L30.5716 29.3721Z" fill="#EAEAEA"/>
<path d="M84.0288 15.7175C83.717 15.9325 83.4805 16.2335 83.3407 16.583L77.9653 28.9465C77.7718 29.4356 77.5944 29.914 77.4278 30.3871C77.2611 30.8601 77.1805 31.145 77.0407 31.6503C76.7773 30.7365 76.4656 29.8442 76.1054 28.9626L70.3913 16.583C70.2462 16.2604 70.0312 15.9755 69.7624 15.7444C69.4184 15.481 68.9937 15.352 68.5637 15.3789H63.4893L74.2401 37.4181L68.7464 49.4054H73.5521C74.0412 49.443 74.5304 49.3194 74.9443 49.0506C75.2776 48.7764 75.5356 48.4217 75.6915 48.0185L90.2804 15.3789H85.1146C84.7276 15.3735 84.346 15.4917 84.0288 15.7175Z" fill="#EAEAEA"/>
<path d="M181.26 34.3537C180.927 34.0258 180.534 33.7624 180.099 33.5797C179.658 33.3862 179.185 33.284 178.701 33.2786C178.201 33.2733 177.707 33.3754 177.244 33.5689C176.798 33.7517 176.395 34.0205 176.046 34.3537C175.707 34.6816 175.444 35.0794 175.272 35.5148C174.901 36.434 174.901 37.4607 175.272 38.3799C175.449 38.8153 175.712 39.2078 176.046 39.5303C176.384 39.8474 176.782 40.1001 177.217 40.2667C177.68 40.4549 178.174 40.5516 178.674 40.5462C179.163 40.5462 179.647 40.4549 180.099 40.2667C180.534 40.0947 180.927 39.8313 181.26 39.5034C181.588 39.1701 181.851 38.7831 182.034 38.3531C182.421 37.4392 182.421 36.4018 182.034 35.4879C181.851 35.0633 181.588 34.6816 181.26 34.3537Z" fill="#EAEAEA"/>
<path d="M168.337 4.24622H162.36V40.2133H168.337V4.24622Z" fill="#EAEAEA"/>
<path d="M222.705 6.64409C222.506 6.19255 222.221 5.77864 221.866 5.43461C221.506 5.09059 221.087 4.81644 220.63 4.62292C220.157 4.42403 219.646 4.3219 219.13 4.3219C218.625 4.3219 218.13 4.42403 217.668 4.62292C217.222 4.81644 216.813 5.09059 216.469 5.43461C216.125 5.78402 215.846 6.19255 215.657 6.64409C215.453 7.11713 215.351 7.62779 215.356 8.14383C215.351 8.64375 215.453 9.13829 215.657 9.5952C216.05 10.4929 216.77 11.2078 217.668 11.5949C218.13 11.7938 218.625 11.8959 219.13 11.8959C219.646 11.8959 220.157 11.7938 220.63 11.5949C221.543 11.2078 222.275 10.4929 222.688 9.5952C222.898 9.13829 223.006 8.64375 223 8.14383C223.011 7.62779 222.909 7.11713 222.705 6.64409Z" fill="#EAEAEA"/>
<path d="M222.124 15.3795H216.146V40.2087H222.124V15.3795Z" fill="#EAEAEA"/>
<path d="M210.588 25.2975C210.561 23.8677 210.292 21.1853 209.841 19.992C209.416 18.8524 208.76 17.8096 207.911 16.9387C207.045 16.084 206.013 15.4282 204.874 15.0036C203.32 14.5305 201.702 14.3155 200.079 14.3693C198.047 14.4499 196.047 14.8853 194.166 15.654C191 16.9925 189.758 18.2557 189.758 18.2557L192.268 22.4109C194.564 20.6424 197.289 19.5297 200.165 19.1857C201.546 19.0513 203.438 19.4759 204.218 20.2608C205.594 21.6369 205.341 23.1904 205.438 24.0881C205.438 24.2171 205.476 24.7923 205.508 25.6254C205.331 25.5932 204.008 25.3567 203.546 25.3137C201.573 25.0556 199.579 25.018 197.601 25.2169C189.903 26.2167 187.839 31.9685 189.521 35.9678C190.398 38.0911 192.263 39.6822 194.988 40.4778C198.396 41.4776 203.761 40.0477 205.83 37.0482C205.83 37.0482 206.115 38.6017 206.196 39.0049C206.277 39.4511 206.562 39.8381 206.97 40.037C207.405 40.2198 207.879 40.3004 208.352 40.2681L211.308 40.2144C210.889 37.1343 210.695 34.0326 210.722 30.9256C210.717 29.6248 210.588 25.2975 210.588 25.2975ZM204.621 33.1672C204.325 33.4736 204.008 33.7585 203.68 34.0326C198.423 38.2362 194.504 36.2419 194.128 33.6725C193.822 31.6191 195.843 29.3721 199.649 28.9582C201.648 28.7862 203.659 28.9045 205.621 29.313C205.648 30.2322 205.675 31.1836 205.701 32.0921L204.621 33.1672Z" fill="#EAEAEA"/>
<path d="M155.227 19.1037C154.485 17.9802 153.517 17.0234 152.388 16.2923C151.27 15.5881 150.007 15.1366 148.695 14.97C147.228 14.7334 145.723 14.8517 144.309 15.3194C142.992 15.7978 141.75 16.4805 140.638 17.3298V4.25134H134.838V40.213H138.6C138.939 40.2291 139.278 40.1378 139.557 39.9442C139.821 39.7131 139.998 39.396 140.052 39.0519L140.32 37.3802L140.444 36.7244C140.713 37.0576 140.982 37.3802 141.267 37.6812C141.697 38.1273 142.17 38.5305 142.686 38.8745C143.218 39.2239 143.793 39.5088 144.39 39.7292C146.491 40.4818 148.781 40.5248 150.91 39.8421C152.227 39.3798 153.41 38.6004 154.356 37.5791C155.361 36.4717 156.13 35.1762 156.613 33.7625C157.178 32.1445 157.484 30.4458 157.511 28.7311C157.586 26.8981 157.414 25.0597 157 23.2696C156.656 21.786 156.054 20.3777 155.227 19.1037ZM142.326 34.6924C141.568 34.3 141.197 33.7034 140.648 32.9078V21.3506C141.347 20.6626 142.159 20.0981 143.046 19.6842C155.264 15.3194 154.377 40.8903 142.315 34.6924H142.326Z" fill="#EAEAEA"/>
<path d="M61.2965 29.9036C60.8664 29.2371 60.3128 28.6619 59.657 28.2104C59.528 28.119 59.3936 28.0384 59.2592 27.9524C58.6679 27.5546 58.0282 27.2213 57.3617 26.9687C55.6146 26.3236 53.83 25.7861 52.0185 25.356C51.2014 25.1518 50.4005 24.8991 49.621 24.5873C48.976 24.3401 48.3793 23.9907 47.8525 23.5445C47.4117 23.1682 47.1483 22.6253 47.1107 22.0501C47.2182 21.2814 47.6859 20.6041 48.3739 20.2386C49.664 19.3355 52.642 19.2442 54.2869 19.6419C54.9105 19.7763 55.5286 19.9591 56.1307 20.1795C56.6682 20.373 57.1251 20.545 57.5283 20.717C58.039 20.9482 58.6141 20.975 59.1409 20.7923C59.3344 20.6794 59.5011 20.5289 59.6247 20.3407L61.0492 17.653C59.8666 16.7284 58.5281 16.0135 57.1036 15.5405C53.7816 14.5084 50.2338 14.4654 46.8903 15.4168C45.6755 15.7877 44.5359 16.3737 43.5307 17.1531C42.6921 17.8089 42.0148 18.6529 41.5579 19.6151C41.1278 20.5396 40.9236 21.5502 40.9558 22.5715C40.9558 22.6038 40.9558 22.6361 40.9558 22.6683C40.9558 22.7006 40.9558 22.8564 40.9558 22.9478C40.9612 23.867 41.187 24.7647 41.6278 25.571C42.0417 26.286 42.6007 26.9095 43.2726 27.3987C43.5522 27.5922 43.8424 27.775 44.1435 27.9362C44.6004 28.2158 45.0842 28.4577 45.5841 28.6565C46.4657 29.0113 47.358 29.3177 48.2718 29.5757C49.1856 29.8338 50.0941 30.0757 50.9595 30.2907C51.782 30.4896 52.5883 30.7476 53.3731 31.0594C54.0235 31.312 54.6202 31.6775 55.147 32.1344C55.6039 32.5484 55.8727 33.1289 55.8888 33.7471C55.8565 34.0535 55.7759 34.3491 55.6415 34.6287C55.4319 35.0587 55.1147 35.4296 54.7169 35.7037C53.5559 36.4079 52.212 36.7573 50.8574 36.6982C49.9221 36.7304 48.9814 36.6337 48.0729 36.4079C46.9279 36.0854 45.8152 35.6392 44.7563 35.0909C44.4122 34.9189 44.036 34.8275 43.6489 34.8329C43.3264 34.8222 43.0092 34.8813 42.7136 35.0157C42.4663 35.1447 42.2459 35.3275 42.0793 35.5532L40.6656 38.2786C41.2354 38.6871 41.8428 39.0473 42.4771 39.3537C43.2726 39.7407 44.1005 40.0686 44.9498 40.3266C45.8582 40.6061 46.7882 40.8158 47.7289 40.9609C48.7072 41.1061 49.6909 41.1759 50.68 41.1652C52.3571 41.1706 54.0289 40.9394 55.6415 40.4771C56.9263 40.1062 58.1304 39.4988 59.1947 38.6817C60.1031 37.9668 60.8342 37.0422 61.318 35.994C61.791 34.9351 62.0168 33.774 61.9684 32.6129C61.9684 32.6129 61.9684 32.5699 61.9684 32.543C61.9684 32.5161 61.9684 32.3763 61.9684 32.2903C61.9577 31.4518 61.7265 30.624 61.2965 29.9036Z" fill="#EAEAEA"/>
<path d="M125.603 16.1162C124.189 15.2508 122.56 14.7938 120.899 14.81C119.281 14.8207 117.701 15.2991 116.346 16.1861C116.346 16.1861 115.76 16.5839 115.524 16.772C114.594 17.5568 113.766 18.4653 113.062 19.4597C111.32 14.181 104.757 13.4231 100.698 16.772C100.193 17.1859 99.72 17.6375 99.2793 18.1159L98.8815 16.256C98.6718 15.5679 98.016 15.1217 97.3011 15.1809H93.5114V40.2143H99.6824V21.8625C100.295 21.1584 101.021 20.5563 101.833 20.0887C103.477 19.1103 106.574 19.2178 107.746 20.5886C108.439 21.3573 108.96 22.5936 108.96 24.4589V40.2143H114.336V21.8625C114.949 21.1584 115.674 20.5563 116.486 20.0887C118.126 19.1103 121.227 19.2178 122.399 20.5886C123.092 21.3573 123.614 22.5936 123.614 24.4589V40.2143H129.833V26.2919C129.833 22.5775 129.409 20.6369 128.554 19.2232C127.844 17.96 126.828 16.8903 125.603 16.1162Z" fill="#EAEAEA"/>
<path opacity="0.65" d="M30.5596 29.3445L11.6919 14.6803L1.98383 7.13318L7.72479 24.77L12.1703 38.4397L16.4276 51.5074L30.5489 29.4036L30.5704 29.3714L30.5596 29.3445Z" fill="#EAEAEA"/>
<path opacity="0.8" d="M30.5594 29.3445L17.4648 0L11.6916 14.6803L7.7245 24.77L0 44.4226L12.17 38.4398L30.5486 29.4036L30.5701 29.3714L30.5594 29.3445Z" fill="#EAEAEA"/>
</g>
<defs>
<clipPath id="clip0_391:4304">
<rect width="223" height="51.5074" fill="white"/>
</clipPath>
</defs>
</svg>
